<svg width="20" height="20" viewBox="0 0 20 20" fill="none" xmlns="http://www.w3.org/2000/svg">
<path d="M20 10C20 15.5228 15.5228 20 10 20C4.47715 20 0 15.5228 0 10C0 4.47715 4.47715 0 10 0H20V2.5C20 3.88071 18.8807 5 17.5 5H10.0004C7.23914 5.0002 5.00041 7.23868 5.00041 9.99996C5.00041 12.7614 7.23897 14.9999 10.0004 14.9999C11.851 14.9999 13.4669 13.9945 14.3314 12.5H10C8.61929 12.5 7.5 11.3807 7.5 10C7.5 8.61929 8.61929 7.5 10 7.5H20V10Z" fill="#01101C"/>
<path d="M20 10C20 15.5228 15.5228 20 10 20C4.47715 20 0 15.5228 0 10C0 4.47715 4.47715 0 10 0H20V2.5C20 3.88071 18.8807 5 17.5 5H10.0004C7.23914 5.0002 5.00041 7.23868 5.00041 9.99996C5.00041 12.7614 7.23897 14.9999 10.0004 14.9999C11.851 14.9999 13.4669 13.9945 14.3314 12.5H10C8.61929 12.5 7.5 11.3807 7.5 10C7.5 8.61929 8.61929 7.5 10 7.5H20V10Z" fill="white"/>
</svg>
